<?xml version="1.0" standalone="no"?>
<!DOCTYPE svg PUBLIC "-//W3C//DTD SVG 1.1//EN" "http://www.w3.org/Graphics/SVG/1.1/DTD/svg11.dtd">
<svg xmlns="http://www.w3.org/2000/svg">
<metadata>Copyright (C) 2018 by original authors @ fontello.com</metadata>
<defs>
<font id="fontello" horiz-adv-x="1000" >
<font-face font-family="fontello" font-weight="400" font-stretch="normal" units-per-em="1000" ascent="850" descent="-150" />
<missing-glyph horiz-adv-x="1000" />
<glyph glyph-name="down" unicode="&#xe800;" d="M0 283q0 25 18 43t44 18 42-18l244-243v642q0 25 18 43t43 18 43-18 18-43v-642l243 243q18 18 43 18t43-18q18-18 18-43t-18-44l-390-390-391 390q-18 20-18 44z" horiz-adv-x="817.4" />

<glyph glyph-name="up" unicode="&#xe801;" d="M0 354q0 26 18 44l391 390 390-390q18-18 18-44 0-26-18-43-18-18-43-18t-43 18l-243 243v-642q0-25-18-43t-43-18q-26 0-44 18t-17 43v642l-244-243q-18-18-43-18t-43 18q-18 17-18 43z" horiz-adv-x="817.4" />

<glyph glyph-name="bookmark" unicode="&#xe802;" d="M650 779q12 0 24-5 19-8 29-23t11-35v-719q0-19-11-35t-29-23q-10-4-24-4-27 0-47 18l-246 236-246-236q-20-19-46-19-13 0-25 5-18 7-29 23t-11 35v719q0 19 11 35t29 23q12 5 25 5h585z" horiz-adv-x="714.3" />

<glyph glyph-name="plus" unicode="&#xe803;" d="M550 400q30 0 30-50t-30-50l-210 0 0-210q0-30-50-30t-50 30l0 210-210 0q-30 0-30 50t30 50l210 0 0 210q0 30 50 30t50-30l0-210 210 0z" horiz-adv-x="580" />

<glyph glyph-name="emo-happy" unicode="&#xe804;" d="M261 800c-60 0-109-65-109-144 0-80 49-145 109-145s110 65 110 145c0 79-49 144-110 144z m477 0c-61 0-110-65-110-144 0-80 49-145 110-145 60 0 110 65 110 145 0 79-50 144-110 144z m208-599c-13 0-27-5-37-16-4-4-8-8-12-12-111-109-253-164-396-165-142-2-285 50-396 155l-3 3-12 12c-21 21-54 20-75-1-20-21-20-55 1-76 3-4 8-8 14-14l3-3c132-124 301-186 469-184 169 1 337 67 468 195 5 5 9 10 14 14 20 22 20 56-1 77-10 10-23 15-37 15z" horiz-adv-x="999" />

<glyph glyph-name="search" unicode="&#xe805;" d="M643 386q0 103-73 176t-177 74-177-74-73-176 73-177 177-73 177 73 73 177z m286-465q0-29-22-50t-50-21q-30 0-50 21l-191 191q-100-69-223-69-80 0-153 31t-125 84-84 125-31 153 31 152 84 126 125 84 153 31 153-31 125-84 84-126 31-152q0-123-69-223l191-191q21-21 21-51z" horiz-adv-x="928.6" />

<glyph glyph-name="glyph" unicode="&#xe806;" d="M47-150l437 0c9 0 16 7 16 16s-7 15-16 15l-437 0c-9 0-16 7-16 16l0 906c0 9 7 16 16 16l656 0c9 0 16-7 16-16l0-156c0-9 7-16 15-16s16 7 16 16l0 156c0 26-21 47-47 47l-656 0c-26 0-47-21-47-47l0-906c0-26 21-47 47-47z m516 672l0-625c0-26 21-47 46-47l344 0c26 0 47 21 47 47l0 625c0 26-21 47-47 47l-344 0c-25 0-46-21-46-47z m406 0l0-625c0-9-7-16-16-16l-344 0c-8 0-15 7-15 16l0 625c0 9 7 16 15 16l344 0c9 0 16-7 16-16z m-625-547a31 31 0 1 1 62 0 31 31 0 1 1-62 0z m406 0a31 31 0 1 1 63 0 31 31 0 1 1-63 0z" horiz-adv-x="1000" />

<glyph glyph-name="glyph-1" unicode="&#xe807;" d="M1297 319c-9 0-16-7-16-16l0-406c0-9-7-16-15-16l-1219 0c-9 0-16 7-16 16l0 406c0 9-7 16-15 16s-16-7-16-16l0-406c0-26 21-47 47-47l1219 0c26 0 47 21 47 47l0 406c0 9-7 16-16 16z m-31 312l-1219 0c-26 0-47-21-47-47l0-187c0-9 7-16 16-16l422 0 0-109c0-26 21-47 46-47l344 0c26 0 47 21 47 47l0 109 422 0c9 0 16 7 16 16l0 187c0 26-21 47-47 47z m-422-359c0-9-7-16-16-16l-344 0c-8 0-15 7-15 16l0 109 375 0 0-109z m437 141l-1250 0 0 171c0 9 7 16 16 16l1219 0c8 0 15-7 15-16l0-171z m-797 437c-25 0-46-21-46-47l0-125c0-8 7-15 15-15s16 7 16 15l0 125c0 9 7 16 15 16l344 0c9 0 16-7 16-16l0-125c0-8 7-15 15-15s16 7 16 15l0 125c0 26-21 47-47 47l-344 0z" horiz-adv-x="1312.5" />

<glyph glyph-name="glyph-2" unicode="&#xe808;" d="M1266 538l-78 0 0 109c0 26-21 47-47 47l-63 0c-8 0-15-7-15-16s7-15 15-15l63 0c8 0 15-7 15-16l0-109-125 0 0 296c0 9-7 16-15 16l-719 0c-9 0-16-7-16-16l0-296-125 0 0 109c0 9 7 16 16 16l62 0c9 0 16 7 16 15s-7 16-16 16l-62 0c-26 0-47-21-47-47l0-109-78 0c-26 0-47-21-47-47l0-438c0-26 21-47 47-47l187 0c9 0 16 7 16 16s-7 16-16 16l-187 0c-9 0-16 7-16 15l0 110 1250 0 0-110c0-8-7-15-15-15l-188 0c-8 0-15-7-15-16s7-16 15-16l188 0c26 0 47 21 47 47l0 438c0 26-21 47-47 47z m-953 281l687 0 0-281-687 0 0 281z m-282-625l0 297c0 8 7 15 16 15l1219 0c8 0 15-7 15-15l0-297-1250 0z m985-63c-9 0-16-7-16-15l0-235-687 0 0 235c0 8-7 15-16 15s-16-7-16-15l0-94 0-156c0-9 7-16 16-16l719 0c8 0 15 7 15 16l0 156 0 94c0 8-7 15-15 15z m140 157a31 31 0 1 1 63 0 31 31 0 1 1-63 0z m-125 0a31 31 0 1 1 63 0 31 31 0 1 1-63 0z" horiz-adv-x="1312.5" />

<glyph glyph-name="glyph-3" unicode="&#xe809;" d="M627 837c-18 17-48 17-66 0l-553-333c-5-3-8-8-8-14l0-591c0-27 22-49 50-49l1088 0c27 0 49 22 49 49l0 591c0 6-3 11-7 14l-553 333z m-49-26c1 1 2 2 3 3 4 3 8 5 13 5s9-2 12-5c1-1 2-2 3-3l539-325-390-232c-8-4-10-14-6-21 3-5 8-8 14-8 2 0 5 1 8 2l382 228 0-555-529 352c-17 14-50 14-65 1l-531-353 0 555 383-228c2-1 5-2 8-2 5 0 10 3 13 8 5 7 2 17-5 21l-390 232 538 325z m550-930l-1069 0 521 347c5 4 22 4 29-1l519-346z m-925 563l781 0c9 0 16 7 16 15s-7 16-16 16l-781 0c-8 0-15-7-15-16s7-15 15-15z" horiz-adv-x="1187.5" />

<glyph glyph-name="glyph-4" unicode="&#xe80a;" d="M1234 413l-1156 0c-5 0-9-3-12-6-3-4-4-9-3-14l125-500c3-11 12-43 46-43l844 0c34 0 43 32 47 43l125 500c1 5 0 10-3 14-3 3-8 6-13 6z m-140-512c-5-20-11-20-16-20l-844 0c-4 0-10 0-16 20l-120 480 1116 0-120-480z m-516 74c9 0 16 7 16 16l0 281c0 9-7 16-16 16s-15-7-15-16l0-281c0-9 7-16 15-16z m-219 0c1 0 2 0 2 0 9 1 15 9 14 17l-31 282c-1 8-9 14-18 13-8-1-14-8-13-17l31-281c1-8 8-14 15-14z m407 0c8 0 15 7 15 16l0 281c0 9-7 16-15 16s-16-7-16-16l0-281c0-9 7-16 16-16z m185 0c1 0 2 0 2 0 8 0 15 6 16 14l31 281c1 9-5 16-14 17-9 1-16-5-17-13l-31-282c-1-8 5-16 13-17z m127 500c4 0 7 1 10 4 7 6 8 15 2 22l-297 344c-6 6-15 7-22 1-6-5-7-15-2-22l297-344c3-3 8-5 12-5z m-521 372c-7 5-17 4-22-3l-281-343c-6-7-5-17 2-22 3-3 6-4 10-4 4 0 9 2 12 6l281 344c5 6 4 16-2 22z m740-309l-125 0c-9 0-16-7-16-16s7-16 16-16l125 0c9 0 16 7 16 16s-7 16-16 16z m-875-32l500 0c9 0 16 7 16 16s-7 16-16 16l-500 0c-9 0-16-7-16-16s7-16 16-16z m-406 0l156 0c9 0 16 7 16 16s-7 16-16 16l-156 0c-9 0-16-7-16-16s7-16 16-16z" horiz-adv-x="1312.5" />

<glyph glyph-name="glyph-5" unicode="&#xe80b;" d="M469 788c-241 0-438-197-438-438s197-438 438-438 437 197 437 438-196 438-437 438z m0-844c-224 0-406 182-406 406s182 406 406 406 406-182 406-406-182-406-406-406z m-235 906c-129 0-234-105-234-234l0-34c0-8 7-15 16-15s15 7 15 15l0 34c0 112 91 203 203 203l28 0c8 0 15 7 15 15s-7 16-15 16l-28 0z m465 0l-27 0c-9 0-16-7-16-16s7-15 16-15l27 0c112 0 203-91 203-203l0-34c0-8 7-15 16-15s16 7 16 15l0 34c0 129-105 234-235 234z m-230-509l0 218c0 8-7 15-16 15s-15-7-15-15l0-225c0-4 1-8 4-11l154-153c3-3 7-5 11-5s8 2 11 5c6 6 6 16 0 22l-149 149z m-410-485l94 125c5 7 4 17-3 22-7 5-17 4-22-3l-94-125c-5-7-3-17 4-22 2-2 6-3 9-3 5 0 9 2 12 6z m750 144c-5 7-15 8-21 3-7-5-9-15-4-22l94-125c3-4 8-6 13-6 3 0 6 1 9 3 7 5 8 15 3 22l-94 125z" horiz-adv-x="937.5" />

<glyph glyph-name="glyph-6" unicode="&#xe80c;" d="M0 350c0-276 224-500 500-500s500 224 500 500-224 500-500 500-500-224-500-500z m500 469c259 0 469-210 469-469s-210-469-469-469-469 211-469 469 211 469 469 469z m0-875c224 0 406 182 406 406s-182 406-406 406-406-182-406-406 182-406 406-406z m-31 779l0-47c0-9 7-16 15-16s16 7 16 16l0 49c196 0 357-152 373-344l-47 0c-9 0-16-7-16-15s7-16 16-16l49 0c0-207-168-375-375-375l0 49c0 9-7 16-16 16s-15-7-15-16l0-47c-192 16-344 177-344 373l49 0c9 0 16 7 16 16s-7 15-16 15l-47 0c15 182 160 327 342 342z m-176-593c4 0 7 1 9 3l176 126c7-2 14-3 22-3 52 0 94 42 94 94 0 7-1 14-3 21l128 179c5 6 4 15-1 20-6 5-14 6-20 2l-181-130c-6 1-11 2-17 2-52 0-94-42-94-94 0-6 1-12 2-18l-127-177c-5-6-4-15 1-20 3-3 7-5 11-5z m145 220c0 34 28 62 62 62s63-28 63-62-28-63-63-63-62 28-62 63z m200 141l-62-87c-7 10-15 18-25 24l87 63z m-216-193c6-9 14-17 23-24l-83-60 60 84z" horiz-adv-x="1000" />

<glyph glyph-name="glyph-7" unicode="&#xe80d;" d="M380 767l-96-143c-5-7-3-16 4-21 7-5 17-3 22 4l96 143c26 44 59 69 94 69s68-25 94-69l172-300-122 25c-9 2-17-4-19-13-1-8 4-16 13-18l156-31c1 0 2 0 3 0 2 0 5 0 7 1 0 1 0 0 1 1 0 0 0 0 1 0 1 1 1 2 2 3 1 0 1 1 2 1 0 1 1 2 1 3 1 1 1 2 1 3 0 0 0 0 0 0l31 156c2 9-3 17-12 19-8 2-16-4-18-13l-23-115-169 294c-32 54-74 84-121 84s-89-30-120-83z m-67-808c0 8-7 15-16 15l-141 0c-48 0-87 19-106 52-20 36-17 82 10 127l172 302 50-126c3-6 9-10 15-10 2 0 4 0 6 1 8 3 12 12 8 20l-62 156c0 1-1 2-1 3-1 0-1 1-2 2-1 1-2 2-3 3 0 0-1 0-1 0 0 0 0 0 0 0-2 1-4 2-6 2 0 0 0 0-1 0-1 0-2 0-4 0l-156-31c-8-2-14-10-12-19 2-8 10-14 18-12l123 25-171-300c-32-56-36-113-10-158 25-43 73-68 133-68l141 0c9 0 16 7 16 16z m664 52c26 45 22 102-9 156l-63 142c-4 8-13 12-21 8-8-3-11-12-8-20l64-144c27-46 30-92 10-126-19-33-58-52-106-52l-322-1 67 68c6 6 6 16 0 22s-16 6-22 0l-94-94c-3-3-4-7-4-11 0 0 0 0 0 0 0-5 2-10 6-13l92-91c3-4 7-5 11-5s8 1 11 5c6 6 6 16 0 22l-66 66 321 1c60 0 108 24 133 67z" horiz-adv-x="1000" />

<glyph glyph-name="glyph-8" unicode="&#xe80e;" d="M500 851c-276 0-501-225-501-501s225-501 501-501 501 225 501 501-225 501-501 501z m0-969c-258 0-468 210-468 468s210 468 468 468 468-210 468-468-210-468-468-468z m-172 452c35 0 63 28 63 63s-28 62-63 62-62-28-62-62 28-63 62-63z m0 94c17 0 31-14 31-31s-14-31-31-31-31 14-31 31 14 31 31 31z m344-94c34 0 62 28 62 63s-28 62-62 62-63-28-63-62 28-63 63-63z m0 94c17 0 31-14 31-31s-14-31-31-31-31 14-31 31 14 31 31 31z m41-268c-53-57-128-90-206-90-79 0-154 34-208 93-6 6-16 7-23 1-7-6-8-17-1-24 59-66 144-104 232-104 88 0 172 37 231 102 6 6 6 17-1 23s-17 6-24-1z" horiz-adv-x="1000" />

<glyph glyph-name="glyph-9" unicode="&#xe80f;" d="M1114 412c-8 2-17-2-19-10-3-9 1-17 10-20 122-39 176-97 176-188 0-81-74-144-118-175-4-3-7-8-7-13l0-119c-23 8-62 28-97 67-4 4-10 6-15 5-9-2-18-4-27-7-16-4-33-8-48-8-80 0-137 17-194 59-7 5-17 4-22-3-5-7-4-17 3-22 64-47 125-66 213-66 20 0 38 5 56 10 5 2 11 3 16 5 59-62 125-76 128-77 1 0 2 0 3 0 3 0 7 1 10 3 3 3 6 8 6 13l0 132c80 58 125 127 125 196 0 105-63 175-199 218z m-83 16c0 241-219 422-510 422-292 0-521-185-521-422 0-142 100-243 188-305l0-207c0-6 2-11 7-13 2-2 5-3 8-3 2 0 5 1 7 1 4 2 111 51 202 151 40-8 84-15 125-15 296 0 494 157 494 391z m-494-359c-41 0-88 7-128 15-5 1-11-1-14-5-64-72-140-118-176-138l0 190c0 5-3 10-7 13-82 57-181 152-181 284 0 219 215 391 490 391 273 0 479-168 479-391 0-215-186-359-463-359z m-21 422c-35 0-63-28-63-63s28-62 63-62 62 28 62 62-28 63-62 63z m0-94c-18 0-32 14-32 31s14 31 32 31 31-14 31-31-14-31-31-31z m218 94c-34 0-62-28-62-63s28-62 62-62 63 28 63 62-28 63-63 63z m0-94c-17 0-31 14-31 31s14 31 31 31 32-14 32-31-14-31-32-31z m-437 91c-35 0-63-28-63-63s28-62 63-62 62 28 62 62-28 63-62 63z m0-94c-17 0-31 14-31 31s14 31 31 31 31-14 31-31-14-31-31-31z" horiz-adv-x="1312.5" />

<glyph glyph-name="glyph-10" unicode="&#xe810;" d="M844 850c-78 0-152-29-210-81-22-20-40-42-56-67-15 25-34 47-56 67-58 52-132 81-209 81-173 0-313-140-313-312 0-117 36-209 121-307 123-144 435-364 448-373 3-2 6-3 9-3s6 1 9 3c13 9 325 229 448 373 85 98 121 190 121 307 0 172-140 312-312 312z m168-599c-110-128-381-323-434-361-53 38-324 233-433 361-80 93-114 178-114 287 0 155 126 281 282 281 69 0 136-26 188-73 26-24 47-52 63-83 5-11 23-11 28 0 16 31 37 59 63 83 52 47 119 73 189 73 155 0 281-126 281-281 0-109-34-194-113-287z" horiz-adv-x="1156.3" />

<glyph glyph-name="glyph-11" unicode="&#xe811;" d="M1061 444c-13 207-157 406-420 406-241 0-427-179-437-418-132-41-204-182-204-285 0-158 131-297 281-297l750 0c152 0 282 163 282 297 0 161-132 288-252 297z m-30-563l-750 0c-133 0-250 124-250 266 0 95 84 266 250 266l47 0c9 0 16 7 16 15s-7 16-16 16l-47 0c-16 0-31-2-45-5 12 188 154 380 405 380 268 0 390-211 390-406l0-47c0-9 7-16 16-16s16 7 16 16l0 47c0 0 0 0 0 0 94-11 218-112 218-266 0-120-115-266-250-266z" horiz-adv-x="1312.5" />

<glyph glyph-name="glyph-12" unicode="&#xe812;" d="M1306 441c-7 6-18 5-24-2l-74-89c-1 1-3 1-5 0l-43 0 55 67c6 8 5 18-2 24-7 6-18 5-24-2l-73-89-49 0 55 67c6 8 5 18-2 24-7 6-17 5-23-2l-74-89-23 0c-1 276-225 500-500 500-276 0-500-224-500-500s224-500 500-500c265 0 482 207 498 469l26 0 73-89c3-4 8-6 12-6 4 0 8 1 11 4 7 6 8 16 2 23l-55 68 49 0 73-89c4-4 8-6 13-6 4 0 8 1 11 4 7 6 8 16 2 23l-55 68 43 0c2-1 4-1 5 0l74-89c3-4 8-6 13-6 4 0 8 1 11 4 7 6 8 16 2 23l-69 83 69 83c6 8 5 18-2 24z m-806-560c-258 0-469 211-469 469s211 469 469 469c258 0 468-210 469-469l-94 0c-1 207-169 375-375 375-207 0-375-168-375-375s168-375 375-375c196 0 357 151 373 344l94 0c-17-245-219-438-467-438z m250 469c-1 138-112 250-250 250-138 0-250-112-250-250s112-250 250-250c127 0 232 95 248 219l94 0c-16-176-163-313-342-313-189 0-344 155-344 344s155 344 344 344c189 0 343-154 344-344l-94 0z m-125 0c-1 70-56 125-125 125-69 0-125-56-125-125s56-125 125-125c58 0 106 40 120 94l96 0c-16-107-106-188-216-188-121 0-219 98-219 219s98 219 219 219c120 0 218-98 219-219l-94 0z m-109-31l72 0c-14-37-48-63-88-63-52 0-94 42-94 94s42 94 94 94c51 0 93-42 94-94l-78 0c-10 1-17-6-17-16s7-16 17-15z" horiz-adv-x="1312.5" />

<glyph glyph-name="glyph-13" unicode="&#xe813;" d="M375 850c-207 0-375-169-375-376 0-310 350-608 365-620 3-3 6-4 10-4 4 0 7 1 10 4 15 12 365 305 365 620 0 207-168 376-375 376z m0-964c-57 52-344 321-344 588 0 190 155 345 344 345s344-155 344-345c0-272-286-537-344-588z m0 777c-103 0-187-85-187-188s84-187 187-187 188 84 188 187-85 188-188 188z m0-344c-86 0-156 70-156 156s70 156 156 156 156-70 156-156-70-156-156-156z" horiz-adv-x="750" />

<glyph glyph-name="glyph-14" unicode="&#xe814;" d="M18 100c24-42 79-65 159-65 0 0 0 0 0 0 36 0 75 5 116 14 40-122 103-199 176-199s136 77 175 199c41-9 81-14 117-14 0 0 0 0 0 0 79 0 134 23 159 65 32 55 3 148-93 250 96 103 125 195 93 250-25 43-80 65-159 65-36 0-76-5-117-14-39 122-103 199-175 199s-136-77-176-199c-41 9-80 14-116 14-80 0-135-22-159-65-32-55-4-147 92-250-96-102-124-195-92-250z m451-219c-58 0-110 69-145 175 47 12 96 28 145 50 49-22 97-38 144-50-34-106-87-175-144-175z m-188 469c0 36 2 72 6 106 27 20 57 38 88 56 31 18 62 34 94 48 31-14 63-30 94-48 31-18 60-36 88-56 3-34 5-70 5-106s-2-72-5-106c-28-19-57-38-88-56-31-18-63-34-94-48-32 14-63 30-94 48-31 18-61 37-88 56-4 34-6 70-6 106z m-28-82c-36 27-68 55-96 82 28 27 60 55 96 82-2-27-3-54-3-82s1-55 3-82z m38 229c6 42 14 82 24 118 38-10 76-23 115-38-24-12-47-24-71-38-24-13-46-28-68-42z m216 80c39 15 78 28 115 38 10-36 18-76 24-118-21 14-44 29-68 42-23 14-47 26-71 38z m177-145c36-27 69-54 97-82-28-27-61-55-97-82 2 27 4 54 4 82s-2 55-4 82z m-38-229c-5-42-14-82-24-118-37 10-76 23-115 39 24 11 48 23 71 37 24 14 47 28 68 42z m-287-42c24-14 47-26 71-37-39-16-77-29-115-39-10 36-18 76-24 118 22-14 44-28 68-42z m534-45c-19-32-66-50-132-50-33 0-70 5-108 13 13 44 22 94 28 147 48 34 89 68 123 101 79-84 116-164 89-211z m-132 518c66 0 113-18 132-50 27-47-10-127-89-211-34 34-75 67-123 101-6 53-15 103-28 147 38 8 75 13 108 13z m-292 185c57 0 110-69 144-175-47-11-95-28-144-50-49 22-98 39-145 50 35 106 87 175 145 175z m-424-235c18 32 65 50 132 50 33 0 69-5 107-13-12-44-21-94-27-147-48-34-89-67-123-101-79 84-117 164-89 211z m89-257c34-33 75-67 123-101 6-53 15-103 27-147-38-8-74-13-107-13 0 0 0 0 0 0-67 0-114 18-132 50-28 47 10 127 89 211z m335-55c43 0 78 35 78 78s-35 78-78 78-78-35-78-78 35-78 78-78z m0 125c26 0 47-21 47-47s-21-47-47-47-47 21-47 47 21 47 47 47z" horiz-adv-x="937.5" />

<glyph glyph-name="glyph-15" unicode="&#xe815;" d="M469-134l0 297c0 8-4 31-13 31s-18-7-18-16l0-312c0-9 9-16 18-16s13 7 13 16z m3 935l0 33c0 9-7 16-16 16s-16-7-16-16l0-33c0-8 7-15 16-15s16 7 16 15z m-350-59l-112-88c-6-6-10-14-10-23s4-17 11-23l110-86c9-9 26-16 39-16l433 0c17 0 32 15 32 33l0 185c0 18-15 32-32 32l-433 0c-13 0-30-6-38-14z m472-203c0-1-1-1-1-1l-433 0c-5 0-14 3-19 8l-111 84 112 88c4 3 13 7 18 7l434-1 0-185z m192-79c-10 8-27 15-40 15l-432 0c-18 0-33-14-33-32l0-186c0-17 15-32 33-32l432 0c13 0 30 7 39 15l111 87c7 6 10 14 10 23s-3 17-11 24l-109 86z m-473-16l433 0c5 0 15-4 19-8l111-85-111-87c-4-4-14-8-19-8l-433 0 0 188z" horiz-adv-x="906.3" />

<glyph glyph-name="glyph-16" unicode="&#xe816;" d="M115 171c6-1 13-8 16-14l10-26c3-5 2-15 0-20l-44-72c-9-15-8-37 5-51l37-37c13-11 36-13 50-4l72 43c4 3 14 4 21 1l26-11c5-2 12-9 13-15l20-81c4-17 21-32 38-33 0 0 11-1 27-1s27 1 27 1c18 1 35 16 39 33l19 81c2 6 8 13 15 15l26 11c5 3 15 2 20-1l71-43c7-4 14-6 22-6 11 0 21 4 29 11l37 37c12 13 14 35 5 50l-44 72c-3 5-3 15 0 20l10 27c2 5 10 12 15 13l82 20c17 4 31 20 33 38 0 0 1 11 1 27s-1 27-1 27c-2 18-16 34-33 39l-82 19c-5 2-13 8-15 15l-11 26c-2 5-2 15 1 20l44 71c9 15 7 37-5 51l-37 37c-13 12-36 14-51 5l-71-44c-5-3-14-4-21-1l-26 11c-6 2-12 10-14 15l-19 82c-4 17-21 31-39 33 0 0-10 1-27 1s-27-1-27-1c-17-2-34-16-38-34l-20-81c-1-5-8-13-14-15l-26-11c-5-2-16-2-20 1l-72 44c-14 9-37 7-51-5l-37-37c-12-14-13-35-4-51l44-71c2-5 3-15 0-21l-11-26c-2-6-9-12-15-14l-81-19c-17-4-31-21-33-39 0 0-1-10-1-27s1-27 1-27c2-17 16-34 33-38l81-20z m-84 85c0 15 1 24 1 25 1 4 5 9 9 10l82 20c16 4 31 18 36 33l11 24c7 15 6 36-3 50l-43 71c-3 4-2 11 0 13l36 36c3 2 10 3 13 1l71-44c14-8 37-8 49-2l25 10c15 5 30 21 34 37l19 81c1 4 7 9 11 9 0 0 10 1 24 1s24-1 25-1c4 0 9-5 10-9l20-81c4-16 18-32 33-37l24-10c15-7 37-6 50 2l71 44c4 2 11 1 13-1l36-35c3-3 3-10 1-14l-44-71c-8-14-9-35-2-49l10-25c5-15 21-29 37-33l81-20c4-1 9-6 9-10 0-1 1-10 1-25s-1-24-1-24c0-4-5-10-9-11l-81-19c-16-4-32-19-37-33l-10-25c-7-14-6-36 2-50l44-71c2-3 2-10-1-13l-35-35c-2-2-5-3-8-3-2 0-4 1-5 1l-72 44c-13 8-37 9-49 3l-24-10c-16-6-30-22-34-37l-20-82c-1-4-6-9-10-9-1 0-10-1-25-1s-24 1-24 1c-4 0-10 5-11 9l-19 82c-4 15-19 31-33 36l-25 11c-6 3-14 4-22 4-10 0-20-2-28-7l-71-44c-3-2-11 0-13 1l-35 36c-3 3-4 10-1 13l43 71c9 14 10 36 3 49l-10 25c-6 15-21 30-37 34l-82 19c-4 1-8 7-9 11 0 0-1 10-1 24z m375-172c95 0 172 78 172 172s-77 172-172 172-172-77-172-172 78-172 172-172z m0 313c78 0 141-63 141-141s-63-140-141-140-140 63-140 140 63 141 140 141z m453 287c-2-2-6-4-8-4l-59 0c-14 0-28-10-32-23 0 0-3-7-6-19-3-11-4-18-4-18-2-14 6-30 18-37l52-26c2-1 5-6 5-9l3-20c0-2-1-7-3-9l-41-40c-10-10-13-28-6-41l19-31c8-12 25-18 38-14l57 18c3 0 6-1 8-3l16-12c2-1 4-6 4-8l0-58c0-14 10-28 23-33 0 0 7-3 19-5 11-3 18-4 18-4 1 0 4-1 5-1 13 0 26 8 32 19l27 51c1 2 5 5 8 5l21 3c3 0 7-1 8-2l40-42c10-10 27-13 41-6l31 19c12 8 18 25 14 39l-17 55c-1 2 0 7 2 10l12 16c1 2 6 4 8 4l58-1c14 0 28 10 33 24 0 0 3 7 5 18 3 11 4 19 4 19 3 14-5 30-18 36l-51 27c-2 1-5 5-5 9l-3 19c-1 3 1 8 2 9l42 41c10 10 13 27 6 41l-19 31c-8 12-25 18-38 13l-58-17c-3 0-6 1-7 3l-17 11c-1 2-4 6-4 8l1 58c0 15-10 29-24 34 0 0-7 2-18 5-11 3-19 4-19 4-1 0-4 0-5 0-12 0-25-7-31-18l-27-52c-1-2-5-4-9-5l-20-3c-3 0-7 2-8 3l-41 41c-9 10-26 14-41 6l-31-19c-12-8-18-24-13-38l17-55c1-2 0-7-2-10l-12-16z m25-18l11 15c8 10 12 26 8 38l-17 55c-1 1 0 3 0 3l30 18 3-1 41-41c7-7 19-12 30-12 2 0 5 0 6 1l18 2c13 1 27 10 33 22l27 51c0 1 2 2 3 2 1 0 7-1 16-3 10-3 16-5 16-5 1 0 2-2 2-3l0-58c0-13 8-28 18-34l14-11c10-8 26-12 39-8l55 18c1 0 3-1 3-1l17-29c1-1 0-3 0-4l-41-41c-10-9-14-24-12-36l3-18c1-13 10-27 21-33l52-26c1-1 2-3 2-4 0-1-2-7-4-16-2-10-4-16-4-16-1-1-3-2-4-2l-58 0c-13 0-27-8-34-18l-10-14c-9-10-12-26-8-38l17-56c0-1-1-3 0-3l-30-17-4 0-40 42c-7 7-19 12-30 12-3 0-5-1-7-1l-18-3c-12-1-26-10-32-21l-27-52c0 0-2-1-4-1l0 0c0 0-6 1-16 3-9 2-15 4-15 4-1 1-3 3-3 4l1 58c0 13-8 27-18 34l-15 11c-7 5-17 9-27 9-4 0-8-1-11-2l-55-17c-2 0-3 1-3 0l-18 30c0 1 0 3 1 4l41 40c9 9 14 25 12 37l-3 18c-1 12-10 26-22 32l-51 27c-1 1-2 3-2 4 0 0 1 7 3 16 3 9 5 15 5 16 0 0 2 2 3 2l59-1c12 0 27 8 33 18z m147-191c52 0 94 42 94 94s-42 94-94 94-93-43-93-94 42-94 93-94z m0 156c35 0 63-28 63-62s-28-63-63-63-62 28-62 63 28 62 62 62z" horiz-adv-x="1312.5" />

<glyph glyph-name="glyph-17" unicode="&#xe817;" d="M47-150l500 0c26 0 47 21 47 47l0 906c0 26-21 47-47 47l-500 0c-26 0-47-21-47-47l0-906c0-26 21-47 47-47z m-16 953c0 9 7 16 16 16l500 0c9 0 16-7 16-16l0-906c0-9-7-16-16-16l-500 0c-9 0-16 7-16 16l0 906z m47-797l438 0c8 0 15 7 15 16l0 656c0 9-7 16-15 16l-438 0c-8 0-15-7-15-16l0-656c0-9 7-16 15-16z m16 657l406 0 0-625-406 0 0 625z m187-719a31 31 0 1 1 63 0 31 31 0 1 1-63 0z m-47 781l125 0c9 0 16 7 16 16s-7 15-16 15l-125 0c-8 0-15-7-15-15s7-16 15-16z" horiz-adv-x="593.8" />

<glyph glyph-name="glyph-18" unicode="&#xe818;" d="M47-150l687 0c26 0 47 21 47 47l0 906c0 26-21 47-47 47l-687 0c-26 0-47-21-47-47l0-906c0-26 21-47 47-47z m-16 953c0 9 7 16 16 16l687 0c9 0 16-7 16-16l0-906c0-9-7-16-16-16l-687 0c-9 0-16 7-16 16l0 906z m78-797l563 0c9 0 16 7 16 16l0 719c0 8-7 15-16 15l-563 0c-8 0-15-7-15-15l0-719c0-9 7-16 15-16z m16 719l531 0 0-687-531 0 0 687z m250-781a31 31 0 1 1 63 0 31 31 0 1 1-63 0z" horiz-adv-x="781.3" />

<glyph glyph-name="glyph-19" unicode="&#xe819;" d="M47 69l547 0 0-47c0-9 7-16 15-16s16 7 16 16l0 47 547 0c26 0 47 21 47 47l0 687c0 26-21 47-47 47l-1125 0c-26 0-47-21-47-47l0-687c0-26 21-47 47-47z m-16 734c0 9 7 16 16 16l1125 0c9 0 16-7 16-16l0-687c0-9-7-16-16-16l-1125 0c-9 0-16 7-16 16l0 687z m78-640l1000 0c9 0 16 7 16 15l0 563c0 8-7 15-16 15l-1000 0c-8 0-15-7-15-15l0-563c0-8 7-15 15-15z m16 562l969 0 0-531-969 0 0 531z m313-750c-36 0-63-27-63-63l0-46c0-9 7-16 16-16l437 0c9 0 16 7 16 16l0 44c0 36-28 65-63 65l-343 0z m375-65l0-29-407 0 0 31c0 19 13 32 32 32l343 0c18 0 32-15 32-34z" horiz-adv-x="1218.8" />

<glyph glyph-name="glyph-20" unicode="&#xe81a;" d="M109 38c9 0 16 7 16 15l0 735c0 18 13 31 31 31l1000 0c18 0 32-15 32-34l0-732c0-8 7-15 15-15s16 7 16 15l0 732c0 36-28 65-63 65l-1000 0c-36 0-62-26-62-62l0-735c0-8 7-15 15-15z m94 718c-8 0-15-7-15-15l0-688c0-8 7-15 15-15l906 0c9 0 16 7 16 15l0 688c0 8-7 15-16 15l-906 0z m891-687l-875 0 0 656 875 0 0-656z m203-94l-1281 0c-9 0-16-7-16-16l0-36c0-38 44-73 78-73l1156 0c36 0 79 42 79 78l0 31c0 9-7 16-16 16z m-16-47c0-18-28-47-47-47l-1156 0c-20 0-47 24-47 42l0 21 1250 0 0-16z" horiz-adv-x="1312.5" />

<glyph glyph-name="glyph-21" unicode="&#xe81b;" d="M47 569c-9 0-16-7-16-16l0-654c0-21 10-33 18-39 10-7 22-10 33-10 6 0 12 1 16 2 92 28 292 234 343 288 50-54 244-260 336-288 12-4 33-4 49 8 8 6 18 18 18 39l0 654c0 9-7 16-16 16s-15-7-15-16l0-654c0-9-4-12-6-14-6-4-15-5-21-3-95 29-331 288-333 291-3 3-7 5-11 5-4 0-9-2-12-5-2-2-246-262-341-291-6-2-15-1-21 3-2 2-5 5-5 14l0 654c0 9-7 16-16 16z m828 78l0 156c0 26-21 47-47 47l-781 0c-26 0-47-21-47-47l0-156c0-9 7-16 16-16l843 0c9 0 16 7 16 16z m-31 16l-813 0 0 140c0 9 7 16 16 16l781 0c9 0 16-7 16-16l0-140z" horiz-adv-x="875" />

<glyph glyph-name="glyph-22" unicode="&#xe81c;" d="M969 850l-906 0c-26 0-63-37-63-62l0-876c0-25 37-62 63-62l906 0c25 0 62 37 62 62l0 876c0 25-37 62-62 62z m31-938c0-8-22-31-31-31l-906 0c-9 0-32 23-32 31l0 876c0 8 23 31 32 31l906 0c9 0 31-23 31-31l0-876z m-484 766c-35 0-63-28-63-62s28-63 63-63 62 28 62 63-28 62-62 62z m0-94c-18 0-32 14-32 32s14 31 32 31 31-14 31-31-14-32-31-32z m250-406c-35 0-63-28-63-62s28-63 63-63 62 28 62 63-28 62-62 62z m0-94c-18 0-32 14-32 32s14 31 32 31 31-14 31-31-14-32-31-32z m-500 250c-35 0-63-28-63-62s28-63 63-63 62 28 62 63-28 62-62 62z m0-93c-18 0-32 14-32 31s14 31 32 31 31-14 31-31-14-31-31-31z m0 140c8 0 15 7 15 16l0 281c0 9-7 16-15 16s-16-7-16-16l0-281c0-9 7-16 16-16z m0-218c-9 0-16-7-16-16l0-94c0-8 7-15 16-15s15 7 15 15l0 94c0 9-7 16-15 16z m250 343c-9 0-16-7-16-15l0-438c0-8 7-15 16-15s15 7 15 15l0 438c0 8-7 15-15 15z m250-281c8 0 15 7 15 16l0 437c0 9-7 16-15 16s-16-7-16-16l0-437c0-9 7-16 16-16z" horiz-adv-x="1031.3" />

<glyph glyph-name="glyph-23" unicode="&#xe81d;" d="M47-150l906 0c26 0 47 21 47 47l0 906c0 26-21 47-47 47l-906 0c-26 0-47-21-47-47l0-906c0-26 21-47 47-47z m-16 953c0 9 7 16 16 16l906 0c9 0 16-7 16-16l0-906c0-9-7-16-16-16l-906 0c-9 0-16 7-16 16l0 906z m94-843c2 0 3 0 5 1l312 93c3 1 5 2 7 4l315 319c1 0 1 1 2 2l114 115c19 18 19 49 0 68l-164 164c-19 19-50 19-69 0l-116-117c-1-1-1-2-2-2l-316-317c-2-1-3-4-4-6l-99-304c-2-5 0-11 4-15 3-3 7-5 11-5z m418 616l32-33-266-267-54 12 288 288z m-215-325l269 270 76-76-273-267-72 0 0 73z m403 137l-289-293-18 63 271 265 36-35z m-497-127l63-15 0-83c0-9 7-16 16-16l82 0 19-69-265-79 85 262z m436 443c6 7 17 7 24 0l164-164c7-7 7-18 0-24l-106-106-188 188 106 106z" horiz-adv-x="1000" />

<glyph glyph-name="glyph-24" unicode="&#xe81e;" d="M438 850c-173 0-313-140-313-312l0-94-47 0c-43 0-78-35-78-78l0-438c0-43 35-78 78-78l719 0c43 0 78 35 78 78l0 438c0 43-35 78-78 78l-47 0 0 94c0 172-140 312-312 312z m-282-312c0 155 126 281 282 281s281-126 281-281l0-94-94 0 0 94c0 103-84 187-187 187s-188-84-188-187l0-94-94 0 0 94z m438-94l-313 0 0 94c0 86 70 156 157 156s156-70 156-156l0-94z m-210-250l-156-156-143 0 156 156 143 0z m188 0l-157-156-143 0 156 156 144 0z m187 0l-156-156-143 0 156 156 143 0z m85 0l0-156-197 0 156 156 41 0z m-804-156l-9 0 0 156 166 0-157-156z m757-157l-719 0c-26 0-47 21-47 47l0 78 813 0 0-78c0-26-21-47-47-47z m47 485l0-141-813 0 0 141c0 26 21 47 47 47l719 0c26 0 47-21 47-47z" horiz-adv-x="875" />

<glyph glyph-name="glyph-25" unicode="&#xe81f;" d="M657 834c0 9-7 16-16 16l-626 0c-9 0-16-7-16-16s7-15 16-15l626 0c9 0 16 7 16 15z m-32-175l0 113c0 9-7 16-16 16l-560 0c-8 0-15-7-15-16l0-113c0-155 119-261 188-309-79-54-191-158-191-309l0-113c0-9 7-16 16-16l562 0c9 0 16 7 16 16l0 112c0 155-121 262-190 310 79 54 190 158 190 309z m-297-565l150-150-300 0 150 150z m70 269c-5-3-7-8-7-13s2-10 7-13c59-37 196-141 196-297l0-96-72 0c0 0 0 0 0 1l-178 178 0 24c0 9-7 16-16 16s-15-7-15-16l0-24-178-178c-1-1-1-1-1-1l-71 0 0 97c0 149 122 249 195 296 5 3 8 8 8 13s-3 10-8 13c-58 37-195 140-195 296l0 97 531 0 0-97c0-149-123-249-196-296z m88 207l-307 0c-6 0-11-3-14-8-2-5-2-11 1-16 37-63 91-102 148-143l5-3c3-2 6-3 9-3s7 1 9 3c8 6 17 11 25 17 51 36 104 73 137 129 3 5 3 11 0 16-3 5-8 8-13 8z m-142-127c-5-4-11-8-16-11-47 33-88 64-120 106l248 0c-29-37-70-66-112-95z m-329-593l626 0c9 0 16 7 16 16s-7 15-16 15l-626 0c-9 0-16-7-16-15s7-16 16-16z m313 406c-8 0-15-7-15-15l0-32c0-8 7-15 15-15s16 7 16 15l0 32c0 8-7 15-16 15z m0 94c-8 0-15-7-15-16l0-31c0-8 7-15 15-15s16 7 16 15l0 31c0 9-7 16-16 16z" horiz-adv-x="656.3" />

<glyph glyph-name="glyph-26" unicode="&#xe820;" d="M797 819c9 0 16 7 16 15s-7 16-16 16l-531 0c-9 0-16-7-16-16s7-15 16-15l531 0z m0-31l-531 0-63 0c-102 0-150-37-172-67-27-38-32-88-15-142 28-82 121-182 178-226 2-2 6-3 9-3 5 0 9 2 13 6 5 7 4 17-3 22-53 41-142 136-167 211-14 44-11 84 10 113 26 36 76 54 147 54l47 0 0-297c0-210 209-331 251-353 0-2-1-4-1-6l0-78c0-9 7-16 16-16s15 7 15 16l0 78c0 2 0 4-1 5 48 22 283 143 283 354l0 297 46 0c71 0 122-18 148-54 21-29 24-69 9-113-19-59-117-173-166-211-7-5-8-15-3-22 3-4 8-6 12-6 4 0 7 1 10 3 54 42 155 160 177 226 18 54 13 104-14 142-22 30-70 67-173 67l-62 0z m-16-329c0-190-223-306-265-326-38 21-235 137-235 326l0 297 500 0 0-297z m-437-484c-36 0-63-27-63-63l0-46c0-9 7-16 16-16l437 0c9 0 16 7 16 16l0 44c0 36-27 65-62 65l-344 0z m375-65l0-29-406 0 0 31c0 19 12 32 31 32l344 0c17 0 31-15 31-34z" horiz-adv-x="1062.5" />

<glyph glyph-name="glyph-27" unicode="&#xe821;" d="M422 819l-344 0c-8 0-15-7-15-16l0-469c0-8 7-15 15-15l344 0c8 0 47-3 47-47 0-9 7-16 15-16s16 7 16 16l0 469c-1 27-18 78-78 78z m47-483c-16 10-34 14-47 14l-328 0 0 438 328 0c44 0 47-43 47-47l0-405z m354-142l-433 0c0 0-22 0-35 13-8 8-12 19-12 34 0 8-7 15-16 15s-15-7-15-15c0-24 7-43 21-57 22-20 52-21 57-21 0 0 433 0 433 0 12 0 22 4 29 13 9 12 9 27 6 37-18 58-111 184-137 218 25 39 119 186 137 244 3 9 3 24-6 36-7 9-17 14-29 14l-275 0c-8 0-15-7-15-16s7-15 15-15l275 0c3 0 4-1 4-1 1-2 2-7 1-9-19-61-138-243-139-245-4-5-4-13 0-18 2-1 120-157 139-217 0-3 0-7-1-9 0 0-1-1-4-1z m-792-328l0 968c0 9-7 16-15 16s-16-7-16-16l0-968c0-9 7-16 16-16s15 7 15 16z" horiz-adv-x="875" />

<glyph glyph-name="glyph-28" unicode="&#xe822;" d="M289-148c0 0 0 0 1 0 2-1 4-2 7-2 1 0 3 0 4 1l340 92 339-92c2-1 3-1 4-1 3 0 5 1 8 2 0 0 0 0 1 0l281 172c6 4 9 11 7 18l-156 547c-1 4-5 8-9 10-5 2-10 1-14-1l-155-87c-7-4-10-14-6-21 4-8 14-10 22-6l137 77 147-516-250-153-60 476c-1 8-9 14-17 13-9-1-15-9-14-17l60-477-310 84 0 86c0 8-7 15-15 15s-16-7-16-15l0-86-310-84 60 477c1 8-5 16-14 17-8 1-16-5-17-13l-60-476-250 153 147 516 138-77c7-4 17-2 21 6 4 7 2 17-6 21l-155 87c-4 2-9 3-14 1-4-2-7-6-9-10l-155-547c-2-7 1-14 7-18l281-172z m341 268c3-3 7-4 11-4 3 0 7 1 10 4 11 9 255 234 255 464 0 149-116 266-265 266s-266-117-266-266c0-226 245-455 255-464z m11 699c133 0 234-101 234-235 0-190-187-385-234-431-47 46-235 244-235 431 0 134 101 235 235 235z m140-235c0 78-63 141-140 141s-141-63-141-141 63-140 141-140 140 63 140 140z m-140-109c-61 0-110 49-110 109s49 110 110 110 109-49 109-110-49-109-109-109z" horiz-adv-x="1281.3" />

<glyph glyph-name="glyph-29" unicode="&#xe823;" d="M328 850c-181 0-328-147-328-328s147-328 328-328c85 0 163 33 221 86 1-1 1-2 3-4l67-67c-6-9-9-20-9-31 0-17 6-33 18-45l265-265c12-12 28-18 45-18s32 6 44 18 18 28 18 44-6 33-18 45l-265 265c-20 20-52 23-76 9l-67 68c-1 1-3 1-4 2 53 58 86 136 86 221 0 181-147 328-328 328z m366-650l266-265c6-6 9-14 9-23s-3-16-9-22c-12-11-33-11-45 0l-265 266c-6 6-9 13-9 22s3 16 9 22c6 6 14 9 22 9s17-3 22-9z m-366 25c-164 0-297 133-297 297s133 297 297 297 297-133 297-297-133-297-297-297z m0 531c-129 0-234-105-234-234s105-234 234-234 235 105 235 234-106 234-235 234z m0-437c-112 0-203 91-203 203s91 203 203 203 203-91 203-203-91-203-203-203z" horiz-adv-x="1000" />

<glyph glyph-name="glyph-30" unicode="&#xe824;" d="M219 100l0-125-93 0c-36 0-62-27-62-63l0-46c0-9 7-16 15-16l313 0c8 0 15 7 15 16l0 44c0 36-27 65-62 65l-95 0 0 125c124 9 221 111 221 236l0 59c0 9-8 17-17 17s-16-8-16-17l0-59c0-112-91-204-203-204s-202 92-202 204l0 59c0 9-7 17-16 17s-17-8-17-17l0-59c0-125 97-227 219-236z m157-190l0-29-281 0 0 31c0 19 13 32 31 32l219 0c18 0 31-15 31-34z m-141 941c-78 0-141-64-141-143l0-372c0-79 63-143 141-143s142 64 140 143l0 372c2 79-61 143-140 143z m109-515c0-60-49-110-109-110s-110 49-110 110l0 372c0 60 51 110 110 110s109-50 109-110l0-372z" horiz-adv-x="468.8" />

<glyph glyph-name="glyph-31" unicode="&#xe825;" d="M1219 850c-52 0-94-42-94-94 0-27 12-52 32-69l-275-439c-12 5-25 8-38 8-27 0-52-11-69-30l-283 180c5 11 8 24 8 38 0 51-42 94-94 94s-93-43-93-94c0-28 12-54 32-71l-215-343c-11 5-23 8-36 8-52 0-94-43-94-94s42-94 94-94 94 42 94 94c0 27-13 52-32 69l216 344c10-4 22-7 34-7 27 0 51 12 68 30l284-180c-5-11-8-24-8-37 0-52 42-94 94-94s94 42 94 94c0 27-12 51-30 68l275 439c11-5 23-7 36-7 51 0 94 42 94 93s-43 94-94 94z m-1063-906c0-35-28-63-62-63s-63 28-63 63 28 62 63 62 62-28 62-62z m250 437c-34 0-62 28-62 63s28 62 62 62 63-28 63-62-28-63-63-63z m438-281c-35 0-63 28-63 63s28 62 63 62 62-28 62-62-28-63-62-63z m375 594c-35 0-63 28-63 62s28 63 63 63 62-28 62-63-28-62-62-62z" horiz-adv-x="1312.5" />

<glyph glyph-name="glyph-32" unicode="&#xe826;" d="M16 756c-9 0-16-7-16-15l0-532c0-25 21-46 47-46l875 0c26 0 47 21 47 46l0 532c0 8-7 15-16 15s-15-7-15-15l0-532c0-8-7-15-16-15l-875 0c-9 0-16 7-16 15l0 532c0 8-7 15-15 15z m1000 94l-1063 0c-9 0-16-7-16-16s7-15 16-15l1063 0c8 0 15 7 15 15s-7 16-15 16z m-646-255c-5 6-14 7-21 1l-187-156c-7-5-8-15-2-22 5-6 15-7 22-2l176 147 178-177c3-3 7-5 11-5s8 2 11 5l223 223 0-118c0-9 7-16 16-16s16 7 16 16l0 156c0 2-1 4-2 6-1 4-4 7-8 8-2 1-4 2-6 2l-156 0c-9 0-16-7-16-16s7-16 16-16l118 0-212-212-177 176z m-118-737c4-7 13-10 21-6l211 111 212-111c2-1 5-2 7-2 6 0 11 3 14 8 4 8 1 17-7 21l-215 113c3 3 5 7 5 12l0 80c0 9-7 16-16 16s-15-7-15-16l0-80c0-5 2-9 5-12l-216-113c-7-4-10-13-6-21z" horiz-adv-x="968.8" />

<glyph glyph-name="glyph-33" unicode="&#xe827;" d="M47-150l906 0c26 0 47 21 47 47l0 906c0 26-21 47-47 47l-906 0c-26 0-47-21-47-47l0-906c0-26 21-47 47-47z m-16 953c0 9 7 16 16 16l906 0c9 0 16-7 16-16l0-906c0-9-7-16-16-16l-906 0c-9 0-16 7-16 16l0 906z m610-344c34 0 62 28 62 63s-28 62-62 62-63-28-63-62 28-63 63-63z m0 94c17 0 31-14 31-31s-14-31-31-31-32 14-32 31 14 31 32 31z m-500-484l718 0c9 0 16 7 16 15l0 625c0 9-7 16-16 16l-718 0c-9 0-16-7-16-16l0-625c0-8 7-15 16-15z m15 31l0 176c1 1 2 1 2 2l160 160c8 8 23 8 31 0l235-236c3-3 7-4 11-4 4 0 7 1 11 4l120 115c4 4 10 6 16 6 5 0 11-2 14-6l88-95c0 0 0 0 0 0l0-122-688 0z m688 594l0-426-65 71c-10 10-23 16-37 16 0 0 0 0 0 0-15 0-28-6-38-16l-109-104-224 225c-20 20-55 20-75 0l-140-140 0 374 688 0z" horiz-adv-x="1000" />

<glyph glyph-name="glyph-34" unicode="&#xe828;" d="M47-25l812 0c26 0 47 21 47 47l0 781c0 26-21 47-47 47l-812 0c-26 0-47-21-47-47l0-781c0-26 21-47 47-47z m-16 828c0 9 7 16 16 16l812 0c9 0 16-7 16-16l0-781c0-9-7-16-16-16l-812 0c-9 0-16 7-16 16l0 781z m532-297c34 0 62 28 62 63s-28 62-62 62-63-28-63-62 28-63 63-63z m0 94c17 0 31-14 31-31s-14-31-31-31-32 14-32 31 14 31 32 31z m-454-469l688 0c9 0 16 7 16 16l0 594c0 8-7 15-16 15l-688 0c-8 0-15-7-15-15l0-594c0-9 7-16 15-16z m16 32l0 144c1 1 2 1 2 2l160 160c8 8 22 8 30 0l235-235c3-3 7-5 11-5 4 0 8 2 11 4l121 115c4 4 10 7 15 7 6 0 11-3 15-6l56-64 0-122-656 0z m656 562l0-393-33 38c-10 10-24 16-38 16 0 0 0 0 0 0-14 0-27-6-37-15l-109-104-225 224c-19 20-54 20-74 0l-140-140 0 374 656 0z m-640-784c-9 0-16-7-16-16l0-28c0-26 21-47 47-47l812 0c26 0 47 21 47 47l0 812c0 26-21 47-47 47l-28 0c-9 0-16-7-16-15s7-16 16-16l28 0c9 0 16-7 16-16l0-812c0-9-7-16-16-16l-812 0c-9 0-16 7-16 16l0 28c0 9-7 16-15 16z" horiz-adv-x="1031.3" />

<glyph glyph-name="glyph-35" unicode="&#xe829;" d="M7 674c-27-27-21-64 0-85 1-1 85-82 204-201 3-3 7-4 11-4s8 1 11 4c7 6 7 16 0 22-18 18-35 35-51 51l50 50c6 6 6 16 0 22s-16 6-22 0l-50-50c-28 28-52 52-72 71l113 113c6 6 6 16 0 22s-16 6-22 0l-114-113c-23 22-36 35-36 35-7 7-15 25 0 40l156 157c6 6 22 18 40 0 1 0 79-90 200-210 6-7 16-7 22 0s6 16 0 22c-120 119-198 208-199 210-30 29-65 20-85 0l-156-156z m662-579c-6 7-16 7-22 0l-49-49c-16 15-31 31-48 48-6 6-16 6-22 0s-6-16 0-22c115-116 196-202 197-204 11-10 26-16 42-16l0 0c16 0 33 6 43 16l156 159c20 19 21 53 3 71l-210 209c-6 7-16 7-22 0s-6-16 0-22l210-209c6-6 5-20-3-27l-156-159c-4-3-12-7-21-7 0 0 0 0 0 0-6 0-13 1-19 7 0 0-14 14-36 38l114 114c6 6 6 16 0 22s-16 6-22 0l-114-113c-19 20-43 45-70 73l49 49c6 6 6 16 0 22z m-678-240c3-3 7-4 11-4 2 0 3 0 5 0l312 93c3 1 5 2 7 4l534 538c0 1 1 2 1 3l115 114c9 9 14 21 14 34 0 13-5 26-14 35l-164 163c-18 19-50 19-69 0l-117-117c0 0-1-1-1-2l-535-535c-2-2-3-4-4-6l-99-304c-2-5 0-12 4-16z m647 830l33-32-485-487-54 13 506 506z m-433-543l488 489 76-76-492-486-72 0 0 73z m622 355l-508-511-18 63 490 484 36-36z m-716-346l63-14 0-84c0-8 7-15 16-15l82 0 19-69-265-79 85 261z m654 662c7 7 18 7 25 0l164-163c3-4 5-8 5-13 0-4-2-9-5-12l-106-105-188 188 105 105z" horiz-adv-x="968.8" />

<glyph glyph-name="glyph-36" unicode="&#xe82a;" d="M886 808c4 3 5 8 4 13 0 5-4 10-8 12-72 34-157 19-213-37-53-54-71-138-47-208l-360-360c-20 7-41 10-63 10-53 0-105-21-142-58-56-56-71-139-40-211 2-5 6-8 11-9 6-1 11 0 14 4l109 110c8 7 19 8 25 2l47-49c7-7 7-18 0-25l-109-110c-4-3-5-8-4-13 1-5 4-10 8-12 26-12 54-18 81-18 49 0 96 19 132 55 53 54 71 138 47 208l360 360c20-7 41-10 63-10 53 0 105 21 142 58 56 56 71 139 40 211-2 5-6 8-11 9-5 1-11 0-14-4l-109-110c-7-6-19-6-25 1l-47 47c-7 7-7 17 0 24l109 110z m-131-157l46-46c19-19 51-19 70-1l91 92c15-54 0-112-41-154-31-31-75-49-120-49-22 0-42 4-60 12-6 3-13 1-18-3l-375-375c-4-5-5-12-3-17 25-60 10-137-36-184-42-41-102-56-156-39l92 93c19 19 20 49 1 68l-47 50c-18 18-51 17-70-2l-91-92c-15 54 0 112 41 154 31 31 75 49 120 49 22 0 42-4 61-12 5-3 12-1 17 3l375 375c4 5 6 12 3 17-25 60-10 137 36 184 42 41 102 56 156 39l-92-93c-20-19-20-49 0-69z m158-759c-7-7-19-7-26 0l-313 313c-7 6-16 6-23 0-6-6-6-16 1-22l313-313c9-9 22-14 35-14 0 0 0 0 0 0 13 0 26 5 35 14l45 47c19 19 19 50 0 69l-313 313c-6 6-16 6-22 0s-6-16 0-22l313-313c7-7 7-18 0-25l-45-47z m-730 860l-94 93c-6 7-16 7-22 0l-62-62c-7-6-7-16 0-22l93-94c3-3 7-4 11-4s8 1 11 4l21 20 239-239c3-3 7-4 11-4s8 1 11 4c6 6 6 16 0 22l-239 239 20 21c6 6 6 16 0 22z m-74-52l-71 72 40 40 72-71-41-41z" horiz-adv-x="1000" />

<glyph glyph-name="glyph-37" unicode="&#xe82b;" d="M344 850c-166 0-344-131-344-344 0-104 42-193 122-259 1-2 2-2 3-3 59-65 62-77 62-105 1-11 1-15 0-17l0-6c0-14-1-38 28-47l253-55c2-1 3-1 4-1 7 0 13 5 15 12 2 9-3 17-12 19l-252 55c-4 2-5 2-4 16l0 6c0 0 0 2 0 18-1 40-10 59-72 127-2 2-3 3-5 4-73 62-111 142-111 236 0 193 162 313 313 313 153 0 312-117 312-313 0-124-60-193-110-236-1 0-3-2-4-3-64-69-73-88-73-128 0-1 0-2 0-3l0-1c0-2-1-4-1-4-1 0-3 0-3 0l-131 31c-9 2-17-3-19-11-2-9 3-17 12-19l129-31c2 0 17-5 30 4 6 4 13 12 14 27l0 1c0 1 0 2 0 3 0 1 0 1 0 1l0 2c1 28 4 40 63 105 0 0 0 0 1 0 83 70 124 156 124 262 0 215-175 344-344 344z m125-922c7 0 13 5 15 12 2 9-3 17-12 19l-250 57c-8 2-17-4-18-12-2-9 3-17 11-19l250-57c2 0 3 0 4 0z m-231-2c-9 2-17-3-19-11-2-9 4-17 12-19l203-46c1 0 2 0 4 0 7 0 13 5 15 12 2 9-4 17-12 19l-203 45z" horiz-adv-x="687.5" />

<glyph glyph-name="chart-bar" unicode="&#xe82c;" d="M688-97l0 894 223 0 0-894-223 0z m-335 0l0 671 223 0 0-671-223 0z m-335 0l0 448 223 0 0-448-223 0z" horiz-adv-x="928" />

<glyph glyph-name="chart-bar-1" unicode="&#xe82d;" d="M357 350v-286h-143v286h143z m214 286v-572h-142v572h142z m572-643v-72h-1143v858h71v-786h1072z m-357 500v-429h-143v429h143z m214 214v-643h-143v643h143z" horiz-adv-x="1142.9" />

<glyph glyph-name="glyph-38" unicode="&#xe82e;" d="M1297 538c-9 0-16-7-16-16l0-625c0-9-7-16-15-16l-1219 0c-9 0-16 7-16 16l0 625c0 9-7 16-15 16s-16-7-16-16l0-625c0-26 21-47 47-47l1219 0c26 0 47 21 47 47l0 625c0 9-7 16-16 16z m-31 312l-1219 0c-26 0-47-21-47-47l0-187c0-9 7-16 16-16l1281 0c9 0 16 7 16 16l0 187c0 26-21 47-47 47z m15-219l-1250 0 0 172c0 9 7 16 16 16l1219 0c8 0 15-7 15-16l0-172z m-734-656c9 0 16 7 16 16l0 500c0 8-7 15-16 15l-406 0c-9 0-16-7-16-15l0-500c0-9 7-16 16-16l406 0z m-391 500l375 0 0-469-375 0 0 469z m547-94l469 0c9 0 16 7 16 16s-7 16-16 16l-469 0c-8 0-15-7-15-16s7-16 15-16z m0-156l469 0c9 0 16 7 16 16s-7 15-16 15l-469 0c-8 0-15-7-15-15s7-16 15-16z m0-156l469 0c9 0 16 7 16 15s-7 16-16 16l-469 0c-8 0-15-7-15-16s7-15 15-15z m-609 656a31 31 0 1 1 62 0 31 31 0 1 1-62 0z m125 0a31 31 0 1 1 62 0 31 31 0 1 1-62 0z m125 0a31 31 0 1 1 62 0 31 31 0 1 1-62 0z" horiz-adv-x="1312.5" />

<glyph glyph-name="glyph-39" unicode="&#xe82f;" d="M1063-103l0 594c0 8-7 15-16 15s-16-7-16-15l0-594c0-9-7-16-15-16l-969 0c-9 0-16 7-16 16l0 594c0 8-7 15-15 15s-16-7-16-15l0-594c0-26 21-47 47-47l969 0c26 0 47 21 47 47z m-922 234c-9 0-16-7-16-15s7-16 16-16l47 0 0-109c0-9 7-16 15-16s16 7 16 16l0 109 187 0 0-109c0-9 7-16 16-16s16 7 16 16l0 109 187 0 0-109c0-9 7-16 16-16s15 7 15 16l0 109 188 0 0-109c0-9 7-16 15-16s16 7 16 16l0 109 47 0c9 0 16 7 16 16s-7 15-16 15l-47 0 0 157 47 0c9 0 16 7 16 15s-7 16-16 16l-47 0 0 140c0 9-7 16-16 16s-15-7-15-16l0-140-188 0 0 140c0 9-7 16-15 16s-16-7-16-16l0-140-187 0 0 140c0 9-7 16-16 16s-16-7-16-16l0-140-187 0 0 140c0 9-7 16-16 16s-15-7-15-16l0-140-47 0c-9 0-16-7-16-16s7-15 16-15l47 0 0-157-47 0z m703 157l0-157-188 0 0 157 188 0z m-219 0l0-157-187 0 0 157 187 0z m-406 0l187 0 0-157-187 0 0 157z m672 468l132 0c3 0 8 0 8-15l0-141-1000 0 0 141c0 8 7 15 16 15l125 0c9 0 16 7 16 16s-7 16-16 16l-125 0c-26 0-47-21-47-47l0-157c0-8 7-15 16-15l1031 0c9 0 16 7 16 15l0 157c0 34-21 47-40 47l-132 0c-9 0-16-7-16-16s7-16 16-16z m-188 0c9 0 16 7 16 16s-7 16-16 16l-344 0c-8 0-15-7-15-16s7-16 15-16l344 0z m-422-47l0 125c0 9-7 16-15 16s-16-7-16-16l0-125c0-8 7-15 16-15s15 7 15 15z m516-15c9 0 16 7 16 15l0 125c0 9-7 16-16 16s-16-7-16-16l0-125c0-8 7-15 16-15z" horiz-adv-x="1062.5" />

<glyph glyph-name="glyph-40" unicode="&#xe830;" d="M47-150l781 0c27 0 47 20 47 47l0 875c0 27-20 47-47 47l-125 0c-8 0-15-7-15-16s7-15 15-15l125 0c10 0 16-6 16-16l0-875c0-10-6-16-16-16l-781 0c-10 0-16 6-16 16l0 875c0 10 6 16 16 16l125 0c9 0 16 7 16 15s-7 16-16 16l-125 0c-27 0-47-20-47-47l0-875c0-27 20-47 47-47z m125 844c9 0 16 7 16 15s-7 16-16 16l-63 0c-8 0-15-7-15-16l0-750c0-8 7-15 15-15l657 0c8 0 15 7 15 15l0 750c0 9-7 16-15 16l-63 0c-8 0-15-7-15-16s7-15 15-15l47 0 0-719-625 0 0 719 47 0z m109-63l313 0c38 0 62 25 62 63l0 140c0 9-7 16-15 16l-407 0c-8 0-15-7-15-16l0-140c0-38 24-63 62-63z m-31 188l375 0 0-125c0-21-10-31-31-31l-313 0c-20 0-31 10-31 31l0 125z m16-469l343 0c9 0 16 7 16 16s-7 15-16 15l-343 0c-9 0-16-7-16-15s7-16 16-16z m0 125l343 0c9 0 16 7 16 16s-7 15-16 15l-343 0c-9 0-16-7-16-15s7-16 16-16z m0-250l343 0c9 0 16 7 16 16s-7 15-16 15l-343 0c-9 0-16-7-16-15s7-16 16-16z m0-125l343 0c9 0 16 7 16 16s-7 15-16 15l-343 0c-9 0-16-7-16-15s7-16 16-16z" horiz-adv-x="875" />

<glyph glyph-name="glyph-41" unicode="&#xe831;" d="M813 522l0-625c0-6 1-11 2-16l-99 0c2 5 3 10 3 16l0 906c0 26-21 47-47 47l-219 0c-26 0-47-21-47-47l0-906c0-6 1-11 3-16l-99 0c1 5 3 10 3 16l0 344c0 26-21 47-47 47l-219 0c-26 0-47-21-47-47l0-344c0-26 21-47 47-47l109 0 110 0 187 0 219 0 187 0 219 0c26 0 47 21 47 47l0 625c0 26-21 47-47 47l-219 0c-25 0-46-21-46-47z m-657-641l-109 0c-9 0-16 7-16 16l0 344c0 8 7 15 16 15l219 0c8 0 15-7 15-15l0-344c0-9-7-16-15-16l-110 0z m297 0c-8 0-15 7-15 16l0 906c0 9 7 16 15 16l219 0c9 0 16-7 16-16l0-906c0-9-7-16-16-16l-219 0z m641 641l0-625c0-9-7-16-16-16l-219 0c-8 0-15 7-15 16l0 625c0 9 7 16 15 16l219 0c9 0 16-7 16-16z" horiz-adv-x="1125" />

<glyph glyph-name="calendar-circled" unicode="&#xe832;" d="M0 350q0 207 147 354t353 146 354-146 146-354-146-354-354-146-353 146-147 354z m219-314l562 0 0 408-562 0 0-408z m0 443l562 0 0 139-68 0 0-88-127 0 0 88-172 0 0-88-127 0 0 88-68 0 0-139z m105 88l53 0 0 98-53 0 0-98z m37-391l47 0q2-35 30-35 33 2 33 39 0 24-16 29-12 6-43 6l0 35q53-1 53 30 0 33-27 33-32-2-32-29l-45 0q2 31 25 48t53 16q51 0 67-39 10-27 2-45-10-21-39-31 49-14 49-57-2-31-26-51t-53-19q-78 0-78 70z m178 92l0 39q35 16 59 37l41 0 0-234-45 0 0 189q-24-21-55-31z m84 299l53 0 0 98-53 0 0-98z" horiz-adv-x="1000" />

<glyph glyph-name="mbri-website-theme" unicode="&#xe865;" d="M583 350c-26 0-48-10-62-26-14-16-21-37-21-57 0-26-19-48-27-54-12-10-5-30 10-30h84c26 0 50 8 69 22 18 15 31 37 31 62 0 22-7 44-21 59-15 16-37 24-63 24z m0-33c19 0 31-6 38-14 8-8 12-20 12-36 0-15-6-26-18-35-11-9-29-15-48-15h-48c8 13 14 30 14 50 0 13 5 25 13 34 8 9 19 16 37 16z m393 366c-4 0-8-2-12-3-7-3-17-7-27-12-22-11-50-28-79-46-58-37-122-82-155-115-31-31-53-59-64-87-11-29-6-60 16-82 22-22 53-26 81-16 29 11 57 34 88 65 33 33 78 96 115 154 18 30 34 57 45 79 6 11 10 20 13 28 1 4 2 7 3 12 0 4 1 10-6 18-7 7-14 6-18 5z m-21-48c-11-20-26-47-44-76-36-57-82-121-110-149-30-29-56-49-76-57-21-7-32-5-47 9-14 14-15 26-8 46 8 20 27 46 57 76 28 28 92 74 149 110 28 18 56 34 76 44 4 1 4-1 3-3z m-872-52h567c9 0 17-7 17-16s-8-17-17-17h-567c-9 0-16 7-16 17s7 16 16 16z m150 50c0-9-7-16-16-16s-17 7-17 16 8 17 17 17 16-7 16-17z m-66 0c0-9-8-16-17-16s-17 7-17 16 8 17 17 17 17-7 17-17z m-67 0c0-9-7-16-17-16s-16 7-16 16 7 17 16 17 17-7 17-17z m-50 84c-27 0-50-23-50-50v-634c0-27 23-50 50-50h833c28 0 50 23 50 50v400c0 23-33 23-33 0v-400c0-9-7-16-17-16h-833c-9 0-17 7-17 16v634c0 9 8 16 17 16h833c23 0 22 34 0 34z" horiz-adv-x="1000" />

<glyph glyph-name="mbri-upload" unicode="&#xe866;" d="M517 317c-5 0-9-2-12-5l-133-133c-16-15 8-39 23-24l122 122 121-122c15-16 39 9 24 24l-134 133c-3 3-7 5-11 5z m0-100c9 0 16-8 16-17v-233c0-10-7-17-16-17s-17 7-17 17v233c0 9 7 17 17 17z m233-134h83c92 0 167 75 167 167 0 80-58 146-135 161 1 8 2 17 2 22 0 174-142 317-317 317-117 0-223-66-278-168-7 0-14 1-22 1-138 0-250-112-250-250s112-250 250-250h33c22 0 23 34 0 34h-33c-120 0-217 97-217 216 0 120 97 217 217 217 9 0 19-1 28-2 7-1 14 3 18 9 47 98 146 160 254 160 157 0 283-127 283-284 0-10 0-21-2-32-1-9 6-17 15-18 69-7 121-64 121-133 0-74-60-133-134-133h-83c-23 0-21-34 0-34z" horiz-adv-x="1000" />

<glyph glyph-name="mbri-sites" unicode="&#xe867;" d="M417 250h433c9 0 17-7 17-17s-8-16-17-16h-433c-10 0-17 7-17 16s7 17 17 17z m0 100h433c9 0 17-7 17-17s-8-16-17-16h-433c-10 0-17 7-17 16s7 17 17 17z m-234 67c-27 0-50-23-50-50v-167c0-27 23-50 50-50h100c28 0 50 23 50 50v167c0 27-22 50-50 50h-100z m0-34h100c10 0 17-7 17-16v-167c0-9-7-17-17-17h-100c-9 0-16 8-16 17v167c0 9 7 16 16 16z m-100 200h834c9 0 16-7 16-16s-7-17-16-17h-834c-9 0-16 7-16 17s7 16 16 16z m150 50a17 17 0 0 0-16-16 17 17 0 0 0-17 16 17 17 0 0 0 17 17 17 17 0 0 0 16-17z m-66 0a17 17 0 0 0-17-16 17 17 0 0 0-17 16 17 17 0 0 0 17 17 17 17 0 0 0 17-17z m-67 0a17 17 0 0 0-17-16 17 17 0 0 0-16 16 17 17 0 0 0 16 17 17 17 0 0 0 17-17z m-50 84c-27 0-50-23-50-50v-634c0-27 23-50 50-50h900c27 0 50 23 50 50v634c0 27-23 50-50 50h-900z m0-34h900c10 0 17-7 17-16v-634c0-9-7-16-17-16h-900c-9 0-17 7-17 16v634c0 9 8 16 17 16z" horiz-adv-x="1000" />

<glyph glyph-name="mbri-rocket" unicode="&#xe868;" d="M216-17c-4 0-8-2-11-5l-33-33c-16-16 8-40 23-23l33 33c11 10 4 28-12 28z m-100 0c-4 0-8-2-11-5l-33-33c-16-16 8-40 23-23l33 33c11 10 3 28-12 28z m0 100c-4 0-8-2-11-5l-33-33c-16-15 8-39 23-23l33 33c11 10 3 28-12 28z m101 134c-9 0-17-8-17-17v-17c0-73 60-133 133-133h17c23 0 21 33 0 33h-17c-55 0-100 45-100 100v17c0 9-7 17-16 17z m483 466c-73 0-133-60-133-133 0-73 60-133 133-133 73 0 133 60 133 133 0 73-60 133-133 133z m0-33c55 0 100-45 100-100s-45-100-100-100-100 45-100 100 45 100 100 100z m210 199c-27 2-59-1-95-8-72-14-158-46-240-93-164-95-280-239-373-441-17-37-67-93-107-114-21-10-35-12-43-6-9 5-19 22-19 63 0 37 16 99 39 150 11 25 23 47 35 62 12 16 23 21 26 21 9 0 14-2 18-6 5-4 8-9 11-16 4-13 5-28 5-28-1-22 33-22 33 0 0 0 0 20-7 40-4 10-10 20-20 29-9 9-23 15-40 15-21 0-37-15-52-34-15-19-28-43-40-70-24-54-41-117-41-163s10-77 34-91c23-15 51-8 76 5 50 26 100 83 122 129 91 198 202 335 360 426 79 45 162 76 229 89 34 7 64 10 87 8 23-2 38-8 44-14 6-6 12-21 14-44 2-23-1-53-8-87-13-67-44-150-89-229-91-158-228-269-426-360-46-22-103-72-129-122-13-25-20-53-5-76 14-24 45-34 91-34 46 0 109 17 163 41 27 12 51 25 70 40 19 15 34 31 34 52 0 16-6 31-15 40-9 10-19 16-29 20-21 7-40 7-40 7-22 0-22-34 0-33 0 0 15-1 28-5 7-3 12-6 16-11 4-4 6-9 6-18 0-3-5-14-21-26-15-12-37-24-62-36-51-22-113-38-150-38-41 0-58 10-63 18-6 9-4 23 6 43 21 41 77 91 114 108 202 93 346 209 441 373 47 82 79 168 93 240 7 36 10 68 8 95-2 28-8 50-23 66-16 15-39 21-66 23z" horiz-adv-x="1000" />

<glyph glyph-name="mbri-protect" unicode="&#xe869;" d="M683 517c-4 0-8-2-12-5l-183-184c-8-8-15-11-21-11-7 0-13 3-22 11l-83 83c-15 16-39-8-23-23l83-83c13-13 28-21 45-21 16 0 32 8 45 21l183 183c10 10 4 29-12 29z m-192 331c-5-2-11-6-19-10-8-5-23-15-38-23-29-16-66-32-101-32-36 0-64 8-89 16-26 8-49 18-77 18-26 0-51-4-71-20-19-16-29-44-29-80v-267c0-39-7-176 69-308 44-78 120-150 192-203 36-27 71-49 100-64 30-16 52-25 72-25 20 0 42 9 72 25 29 15 64 37 100 64 72 53 148 125 193 203 75 132 68 269 68 308v267c0 36-10 64-29 80-20 16-45 20-71 20-27 0-51-10-77-18-25-8-53-16-89-16-35 0-72 16-101 32-15 8-30 17-38 23-8 5-15 8-19 10-5 3-13 3-18 0z m9-34c3 0 6-2 10-5 10-6 24-14 40-23 31-17 73-36 117-36 41 0 73 9 99 17 27 9 47 16 67 16 22 0 39-4 49-12 11-9 18-24 18-54v-267c0-43 6-168-64-292-41-71-114-141-184-193-35-25-68-46-96-61-27-14-51-21-56-21-5 0-29 7-56 21-28 15-61 36-96 61-69 52-143 122-183 193-71 124-65 249-65 292v267c0 30 7 45 18 54 10 8 27 12 49 12 20 0 40-7 67-16 26-8 58-17 99-17 44 0 85 19 117 36 16 9 30 17 40 23 4 3 7 5 10 5z" horiz-adv-x="1000" />

<glyph glyph-name="mbri-mobile2" unicode="&#xe86a;" d="M283-17h434c10 0 16 7 16 17s-6 17-16 17h-434c-10 0-16-7-16-17s6-17 16-17z m167-66h100c10 0 17 6 17 16s-7 17-17 17h-100c-10 0-17-7-17-17s7-16 17-16z m-167 800h434c10 0 16-7 16-17s-6-17-16-17h-434c-10 0-16 7-16 17s6 17 16 17z m167 66h100c10 0 17-6 17-16s-7-17-17-17h-100c-10 0-17 7-17 17s7 16 17 16z m-200 67c-27 0-50-23-50-50v-900c0-27 23-50 50-50h500c27 0 50 23 50 50v900c0 27-23 50-50 50h-500z m0-33h500c10 0 17-7 17-17v-900c0-10-7-17-17-17h-500c-10 0-17 7-17 17v900c0 10 7 17 17 17z" horiz-adv-x="1000" />

<glyph glyph-name="mbri-mobile" unicode="&#xe86b;" d="M533-50a33 33 0 0 0-33-33 33 33 0 0 0-33 33 33 33 0 0 0 33 33 33 33 0 0 0 33-33z m-83 833h100c9 0 17-7 17-16s-8-17-17-17h-100c-9 0-17 7-17 17s8 16 17 16z m-200 67c-27 0-50-23-50-50v-900c0-27 23-50 50-50h500c27 0 50 23 50 50v900c0 27-23 50-50 50h-500z m0-33h500c10 0 17-7 17-17v-900c0-10-7-17-17-17h-500c-9 0-17 7-17 17v900c0 10 8 17 17 17z" horiz-adv-x="1000" />

<glyph glyph-name="mbri-hearth" unicode="&#xe86c;" d="M266 783c-75-3-146-40-194-96-49-56-72-130-72-204 0-64 23-127 55-182 32-54 73-102 117-146 94-95 202-175 320-237 5-2 11-2 16 0 118 62 226 142 321 237 43 44 85 92 116 146 32 55 55 118 55 182 0 74-23 148-72 204-48 56-119 93-194 96-50 3-101-9-145-34-37-21-66-52-89-87-23 35-52 66-89 87-44 25-95 37-145 34z m2-33c44 2 88-8 127-30 38-22 70-55 90-94 7-12 24-12 30 0 20 39 52 72 90 94 39 22 83 32 128 30 64-3 127-35 170-85 43-49 64-115 64-182 0-57-21-114-51-165-29-51-68-97-111-139-90-90-193-166-305-226-112 60-215 136-305 226-42 42-82 88-111 139-30 51-51 108-51 165 0 67 21 133 64 182 43 50 106 82 171 85z" horiz-adv-x="1000" />

<glyph glyph-name="mbri-growing-chart" unicode="&#xe86d;" d="M916 450a17 17 0 0 1-11-5l-283-286c-2-2-8-4-14-4-6 0-11 2-13 4l-133 139c-10 11-24 14-37 14-13 0-26-4-37-14l-316-319a17 17 0 1 1 23-24l317 320c1 1 7 4 13 4 6 0 12-3 13-4l133-139c11-11 24-14 37-14 13 0 27 3 37 13l283 287a17 17 0 0 1-12 28z m-33 67c-22 0-21-34 0-34h84v-83c0-22 33-22 33 0v100c0 9-7 17-17 17z m-866 333c-9 0-17-7-17-17v-966c0-10 8-17 17-17h966c23 0 23 34 0 33h-950v950c1 10-7 17-16 17z" horiz-adv-x="1000" />

<glyph glyph-name="mbri-extension" unicode="&#xe86e;" d="M785 836c-19 19-51 19-70 0l-200-201c-20-19-20-51 0-70l200-200c19-20 51-20 70 0l201 200c19 19 19 51 0 70l-201 201z m-23-24l200-200c7-7 7-17 0-24l-200-200c-7-7-17-7-24 0l-200 200c-7 7-7 17 0 24l200 200c7 7 17 7 24 0z m-212-562c-27 0-50-23-50-50v-300c0-27 23-50 50-50h300c27 0 50 23 50 50v300c0 27-23 50-50 50h-300z m0-33h300c10 0 17-7 17-17v-300c0-10-7-17-17-17h-300c-9 0-17 7-17 17v300c0 10 8 17 17 17z m-500 533c-27 0-50-23-50-50v-300c0-27 23-50 50-50h300c27 0 50 23 50 50v300c0 27-23 50-50 50h-300z m0-33h300c10 0 17-7 17-17v-300c0-9-7-17-17-17h-300c-9 0-17 8-17 17v300c0 10 8 17 17 17z m0-467c-27 0-50-23-50-50v-300c0-27 23-50 50-50h300c27 0 50 23 50 50v300c0 27-23 50-50 50h-300z m0-33h300c10 0 17-7 17-17v-300c0-10-7-17-17-17h-300c-9 0-17 7-17 17v300c0 10 8 17 17 17z" horiz-adv-x="1000" />

<glyph glyph-name="mbri-download" unicode="&#xe86f;" d="M517-117c4 0 8 2 11 5l134 133c15 15-9 39-24 24l-121-122-122 122c-15 16-39-9-23-24l133-133c3-3 7-5 12-5z m0 100c-10 0-17 8-17 17v233c0 10 7 17 17 17s16-7 16-17v-233c0-9-7-17-16-17z m233 100h83c92 0 167 75 167 167 0 80-58 146-135 161 1 8 2 17 2 22 0 174-142 317-317 317-117 0-223-66-278-168-7 0-14 1-22 1-138 0-250-112-250-250s112-250 250-250h33c22 0 23 34 0 34h-33c-120 0-217 97-217 216 0 120 97 217 217 217 9 0 19-1 28-2 7-1 14 3 18 9 47 98 146 160 254 160 157 0 283-127 283-284 0-10 0-21-2-32-1-9 6-17 15-18 69-7 121-64 121-133 0-74-60-133-134-133h-83c-23 0-21-34 0-34z" horiz-adv-x="1000" />

<glyph glyph-name="mbri-cust-feedback" unicode="&#xe870;" d="M683 550s-10 0-13-7l-180-183-20-10c-7 0-13 0-20 10l-83 83c-20 17-44-6-27-23l80-80c13-13 33-20 47-20 16 0 33 7 46 20l187 177c7 13 0 33-17 33z m-633 267c-27 0-50-24-50-50v-634c0-26 23-50 50-50h117v-150c0-10 0-20 6-33 0-7 14-13 20-17 20 0 34 7 54 24l176 176h527c27 0 50 24 50 50v634c0 26-23 50-50 50z m0-34h900c10 0 17-6 17-16v-634c0-10-7-16-17-16h-547l-180-190c-16-17-20 0-20 6v167c0 10-6 17-16 17h-134c-10 0-16 6-16 16v634c0 10 6 16 16 16z" horiz-adv-x="1000" />

<glyph glyph-name="mbri-credit-card" unicode="&#xe871;" d="M750 217c-46 0-83-38-83-84s37-83 83-83c19 0 35 8 50 20 15-12 31-20 50-20 46 0 83 38 83 83s-37 84-83 84c-19 0-35-8-50-20-15 12-31 20-50 20z m0-34c14 0 28-6 38-17 6-7 18-7 25 0 9 11 23 17 37 17 28 0 50-22 50-50s-22-50-50-50c-14 0-28 7-37 17-7 8-19 8-25 0-10-10-24-17-38-17-28 0-50 23-50 50s22 50 50 50z m-233-33h66c10 0 17-7 17-17s-7-16-17-16h-66c-10 0-17 7-17 16s7 17 17 17z m-134 0h67c9 0 17-7 17-17s-8-16-17-16h-67c-9 0-16 7-16 16s7 17 16 17z m-133 0h67c9 0 16-7 16-17s-7-16-16-16h-67c-9 0-17 7-17 16s8 17 17 17z m233 167h400c10 0 17-8 17-17s-7-17-17-17h-400c-9 0-16 8-16 17s7 17 16 17z m167 100h233c10 0 17-8 17-17s-7-17-17-17h-233c-9 0-17 8-17 17s8 17 17 17z m-167 0h100c10 0 17-8 17-17s-7-17-17-17h-100c-9 0-16 8-16 17s7 17 16 17z m-233 33c-9 0-17-7-17-17v-166c0-9 8-17 17-17h133c10 0 17 8 17 17v166c0 10-7 17-17 17z m17-33h100v-134h-100z m-50 100c-28 0-50-23-50-50v-434c0-27 22-50 50-50h733c27 0 50 23 50 50v434c0 27-23 50-50 50z m0-34h733c10 0 17-7 17-16v-434c0-9-7-16-17-16h-733c-10 0-17 7-17 16v434c0 9 7 16 17 16z m-167 234c-27 0-50-23-50-50v-434c0-27 23-50 50-50h67c22 0 21 34 0 34h-67c-9 0-17 7-17 16v217h50c10 0 17 7 17 17s-7 16-17 16h-50v100h800v-16c0-23 34-22 34 0v100c0 27-23 50-50 50z m0-34h767c9 0 16-7 16-16v-50h-800v50c0 9 8 16 17 16z" horiz-adv-x="1000" />

<glyph glyph-name="mbri-desktop" unicode="&#xe872;" d="M533 183a33 33 0 0 0-33-33 33 33 0 0 0-33 33 33 33 0 0 0 33 34 33 33 0 0 0 33-34z m-450 100h834c9 0 16-7 16-16s-7-17-16-17h-834c-9 0-16 7-16 17s7 16 16 16z m-33 467c-27 0-50-23-50-50v-567c0-27 23-50 50-50h350v-100h-83c-10 0-17-7-17-16s7-17 17-17h366c10 0 17 7 17 17s-7 16-17 16h-83v100h350c27 0 50 23 50 50v567c0 27-23 50-50 50z m0-33h900c10 0 17-7 17-17v-567c0-9-7-16-17-16h-900c-9 0-17 7-17 16v567c0 10 8 17 17 17z m383-634h134v-100h-134z" horiz-adv-x="1000" />

<glyph glyph-name="mbri-flag" unicode="&#xe873;" d="M217 817c-22 0-23-34 0-34h657c37 0 26-12 20-23l0 0-124-167c-4-6-4-14 0-20l123-166h0c12-18 6-24-20-24h-656c-22 0-22-33 0-33h656c22 0 42 4 53 20 6 8 9 19 7 28-2 10-6 19-13 29l-116 156 116 157c12 15 18 36 9 52-10 17-30 25-55 25z m-100 33c-28 0-50-23-50-50v-900c0-27 22-50 50-50s50 23 50 50v900c0 27-23 50-50 50z m0-33c9 0 16-7 16-17v-900c0-10-7-17-16-17-10 0-17 7-17 17v900c0 10 7 17 17 17z" horiz-adv-x="1000" />

<glyph glyph-name="mbri-alert" unicode="&#xe875;" d="M450-50c-9 0-17-8-17-17v-16c0-37 30-67 67-67s67 30 67 67v16c0 11-9 17-17 17s-17-5-17-17v-16c0-19-14-34-33-34s-33 15-33 34v16c0 10-8 17-17 17z m50 900c-55 0-100-45-100-100v-17c0-21 33-22 33 0v17c0 37 30 67 67 67 37 0 67-30 67-67v-17c0-21 33-22 33 0v17c0 55-45 100-100 100z m250-100c101 0 183-82 183-183 0-22-33-22-33 0 0 83-67 150-150 150-22 0-22 33 0 33z m-500 0c-101 0-183-82-183-183 0-22 33-22 33 0 0 83 67 150 150 150 22 0 22 33 0 33z m250-67c-144 0-223-60-261-136-39-77-39-167-39-230 0-67 0-194-96-306a17 17 0 0 1 13-28h766a17 17 0 0 1 13 28c-96 112-96 239-96 306 0 63 0 153-39 230-38 76-117 136-261 136z m0-33c135 0 198-51 231-118 34-67 36-152 36-215 0-62 3-186 86-300h-706c83 114 86 238 86 300 0 63 2 148 36 215 33 67 96 118 231 118z" horiz-adv-x="1000" />

<glyph glyph-name="graph_rising" unicode="&#xe876;" d="M969-88h-906v126h62c17 0 31 14 31 31s-14 31-31 31h-62v94c17 0 31 14 31 31s-14 31-31 31v94h62c17 0 31 14 31 31s-14 32-31 32h-62v93c17 0 31 14 31 32s-14 31-31 31v94h62c17 0 31 14 31 31s-14 31-31 31h-62v94c0 17-14 31-32 31s-31-14-31-31v-907c0-34 28-62 63-62h906c17 0 31 14 31 31s-14 31-31 31z m-94 407c17 0 31 14 31 31v156c0 2 0 4 0 6-1 1-1 2-1 3 0 1-1 2-1 3-1 1-1 2-2 3 0 1 0 2-1 3-2 3-5 6-9 8 0 1-1 1-2 2-1 0-2 1-3 1-1 1-2 1-3 1-1 0-2 1-3 1-2 0-4 1-6 1h-156c-17 0-31-14-31-32s14-31 31-31h81l-300-300-72 72c-12 12-32 12-44 0l-156-156c-12-12-12-32 0-44 6-6 14-9 22-9s16 3 22 9l134 134 72-72c12-12 32-12 44 0l322 322v-81c0-17 14-31 31-31z" horiz-adv-x="1000" />

<glyph glyph-name="graph" unicode="&#xe877;" d="M969-88h-31v438c0 35-28 63-63 63h-94c-34 0-62-28-62-63v-438h-31v751c0 34-28 62-63 62h-94c-34 0-62-28-62-62v-751h-31v282c0 34-28 62-63 62h-94c-34 0-62-28-62-62v-282h-156v126h62c17 0 31 14 31 31s-14 31-31 31h-62v94c17 0 31 14 31 31s-14 31-31 31v94h62c17 0 31 14 31 31s-14 32-31 32h-62v93c17 0 31 14 31 32s-14 31-31 31v94h62c17 0 31 14 31 31s-14 31-31 31h-62v94c0 17-14 31-32 31s-31-14-31-31v-907c0-34 28-62 63-62h906c17 0 31 14 31 31s-14 31-31 31z m-188 438h94v-438h-94v438z m-250 313h94v-751h-94v751z m-250-469h94v-282h-94v282z" horiz-adv-x="1000" />

<glyph glyph-name="bookmark-empty" unicode="&#xf097;" d="M643 707h-572v-693l237 227 49 47 50-47 236-227v693z m7 72q12 0 24-5 19-8 29-23t11-35v-719q0-19-11-35t-29-23q-10-4-24-4-27 0-47 18l-246 236-246-236q-20-19-46-19-13 0-25 5-18 7-29 23t-11 35v719q0 19 11 35t29 23q12 5 25 5h585z" horiz-adv-x="714.3" />

<glyph glyph-name="menu" unicode="&#xf0c9;" d="M857 100v-71q0-15-10-25t-26-11h-785q-15 0-25 11t-11 25v71q0 15 11 25t25 11h785q15 0 26-11t10-25z m0 286v-72q0-14-10-25t-26-10h-785q-15 0-25 10t-11 25v72q0 14 11 25t25 10h785q15 0 26-10t10-25z m0 285v-71q0-14-10-25t-26-11h-785q-15 0-25 11t-11 25v71q0 15 11 26t25 10h785q15 0 26-10t10-26z" horiz-adv-x="857.1" />

<glyph glyph-name="code" unicode="&#xf121;" d="M344 69l-28-28q-5-5-12-5t-13 5l-260 261q-6 5-6 12t6 13l260 260q5 6 13 6t12-6l28-28q6-5 6-13t-6-12l-219-220 219-219q6-6 6-13t-6-13z m330 596l-208-721q-2-7-9-11t-13-1l-34 9q-8 3-11 9t-2 14l209 720q2 8 8 11t13 2l35-10q7-2 11-9t1-13z m367-363l-260-261q-6-5-13-5t-13 5l-28 28q-5 6-5 13t5 13l219 219-219 220q-5 5-5 12t5 13l28 28q6 6 13 6t13-6l260-260q5-5 5-13t-5-12z" horiz-adv-x="1071.4" />

<glyph glyph-name="calendar-empty" unicode="&#xf133;" d="M71-79h786v572h-786v-572z m215 679v161q0 8-5 13t-13 5h-36q-8 0-13-5t-5-13v-161q0-8 5-13t13-5h36q8 0 13 5t5 13z m428 0v161q0 8-5 13t-13 5h-35q-8 0-13-5t-5-13v-161q0-8 5-13t13-5h35q8 0 13 5t5 13z m215 36v-715q0-29-22-50t-50-21h-786q-29 0-50 21t-21 50v715q0 29 21 50t50 21h72v54q0 37 26 63t63 26h36q37 0 63-26t26-63v-54h214v54q0 37 27 63t63 26h35q37 0 64-26t26-63v-54h71q29 0 50-21t22-50z" horiz-adv-x="928.6" />

<glyph glyph-name="calendar-check-o" unicode="&#xf274;" d="M727 312l-286-286q-5-5-12-5t-13 5l-161 161q-5 6-5 13t5 12l26 26q5 5 12 5t13-5l123-123 247 248q6 5 13 5t13-5l25-26q5-5 5-12t-5-13z m-656-391h786v572h-786v-572z m215 679v161q0 8-5 13t-13 5h-36q-8 0-13-5t-5-13v-161q0-8 5-13t13-5h36q8 0 13 5t5 13z m428 0v161q0 8-5 13t-13 5h-35q-8 0-13-5t-5-13v-161q0-8 5-13t13-5h35q8 0 13 5t5 13z m215 36v-715q0-29-22-50t-50-21h-786q-29 0-50 21t-21 50v715q0 29 21 50t50 21h72v54q0 37 26 63t63 26h36q37 0 63-26t26-63v-54h214v54q0 37 27 63t63 26h35q37 0 64-26t26-63v-54h71q29 0 50-21t22-50z" horiz-adv-x="1000" />
</font>
</defs>
</svg>
